<svg id="Слой_1" data-name="Слой 1" xmlns="http://www.w3.org/2000/svg" viewBox="0 0 1000 1000"><defs><style>.cls-1{fill:#ffc823;}.cls-2,.cls-3,.cls-6,.cls-7{fill:none;}.cls-2,.cls-3,.cls-4,.cls-6,.cls-7{stroke:#29546d;stroke-miterlimit:10;}.cls-2,.cls-4{stroke-width:10px;}.cls-3{stroke-width:8px;}.cls-4,.cls-5{fill:#29546d;}.cls-6{stroke-width:3px;}.cls-7{stroke-width:18px;}.cls-8{isolation:isolate;}</style></defs><circle class="cls-1" cx="500" cy="500" r="500"/><path class="cls-2" d="M695.17,165.76v469.1a29.75,29.75,0,0,1-29.76,29.75H367.87a29.68,29.68,0,0,1-29.76-29.75V165.76A29.76,29.76,0,0,1,367.87,136H665.41A29.76,29.76,0,0,1,695.17,165.76Z"/><path class="cls-3" d="M466.57,618.12v43.35a7,7,0,0,1-.74,3.14h-29a6.92,6.92,0,0,1-.74-3.14V618.12a7.06,7.06,0,0,1,7.06-7.06H459.5A7.07,7.07,0,0,1,466.57,618.12Z"/><path class="cls-3" d="M594.58,618.12v43.35a6.92,6.92,0,0,1-.74,3.14h-29a6.92,6.92,0,0,1-.74-3.14V618.12a7.06,7.06,0,0,1,7.07-7.06h16.35A7.06,7.06,0,0,1,594.58,618.12Z"/><path class="cls-4" d="M368.16,220.91V664.18h-5.4a29.78,29.78,0,0,1-24.65-29.32V220.91Z"/><path class="cls-5" d="M372.51,136v53.56h-30v-23.8A29.75,29.75,0,0,1,372.23,136Z"/><rect class="cls-6" x="337.68" y="189.56" width="312.64" height="27"/><rect class="cls-6" x="670.78" y="189.99" width="24.38" height="27"/><rect class="cls-5" x="649.88" y="139.05" width="12.19" height="521.21"/><path class="cls-5" d="M691.25,259.07V649.63a29.77,29.77,0,0,1-9.64,10.19h-2.55V259.07Z"/><rect class="cls-5" x="669.48" y="138.89" width="2.61" height="521.21"/><path class="cls-7" d="M335.07,200c-8,7-120.56,108.53-97.54,254.29,15,95.15,78.75,151.69,97.54,167.21"/><rect class="cls-5" x="328.97" y="188.69" width="6.1" height="14.8" transform="translate(428.13 569.52) rotate(-135)"/><rect class="cls-5" x="334.19" y="622.38" width="6.1" height="14.8" transform="translate(-359.41 471.58) rotate(-49.04)"/><polygon class="cls-4" points="507.26 272.29 446.65 415.34 505.95 421.96 462 546.49 591.14 403.95 519.83 396.54 582.88 280.76 507.26 272.29"/><g class="cls-8"><path class="cls-5" d="M142.26,794.55,156,725.74H185.9q10.82,0,18.53,3.54a27,27,0,0,1,11.84,10,27.9,27.9,0,0,1,4.13,15.38,41.45,41.45,0,0,1-3.14,16.47,36.6,36.6,0,0,1-8.85,12.58,39,39,0,0,1-13.57,8.06,51.45,51.45,0,0,1-17.39,2.8ZM164.86,779H178a23.45,23.45,0,0,0,12.38-3,20.2,20.2,0,0,0,7.67-8.3,25.94,25.94,0,0,0,2.65-11.85,15.16,15.16,0,0,0-1.92-7.86,12.28,12.28,0,0,0-5.7-5,22.75,22.75,0,0,0-9.38-1.72H172.33Z"/><path class="cls-5" d="M275.15,779.51h36.08l-3.15,15H252.94l13.76-68.81h53.86l-3,15h-34.7Zm4-27.13h31.95l-2.85,14.55H276.33Z"/><path class="cls-5" d="M348.48,794.55l13.76-68.81H381.7l-10.61,53.38h32.83l-3.15,15.43Z"/><path class="cls-5" d="M437.93,794.55l13.76-68.81h19.46l-13.76,68.81Z"/><path class="cls-5" d="M521.67,794.55,506,725.74h20l13.17,59.67H526.49l37.45-59.67h20l-43.15,68.81Z"/><path class="cls-5" d="M626.06,779.51h36.08l-3.15,15H603.85l13.76-68.81h53.87l-3.05,15h-34.7Zm4-27.13H662l-2.85,14.55h-32Z"/><path class="cls-5" d="M699.39,794.55l13.76-68.81h29.39q13.28,0,20.5,5.8t7.22,16.12a27.13,27.13,0,0,1-4.17,15.09,27.47,27.47,0,0,1-11.85,10,42.79,42.79,0,0,1-18.08,3.54H713.84l10.32-8.36-5.3,26.64Zm24.28-24.38-6.78-8.94H737q6.5,0,10-3.05t3.54-8.65c0-2.88-1-5-2.86-6.39s-4.55-2.06-8-2.06H721l10.42-9.24Zm18.87,24.38-14-25.06h20.15l14.25,25.06Z"/><path class="cls-5" d="M818,794.55l5.79-29.19L826,777.25l-20.55-51.51H825l14.75,37.36-12,.09,30.08-37.45H877.6l-40.89,51.51,6.59-11.89-5.8,29.19Z"/></g></svg>
