<svg width="1000" height="1000" viewBox="0 0 1000 1000" fill="none" xmlns="http://www.w3.org/2000/svg">
<path d="M500 1000C776.142 1000 1000 776.142 1000 500C1000 223.858 776.142 0 500 0C223.858 0 0 223.858 0 500C0 776.142 223.858 1000 500 1000Z" fill="url(#paint0_linear_9_413)"/>
<path d="M408.334 729.166C392.134 729.166 394.888 723.05 389.3 707.625L341.667 550.862L708.334 333.333" fill="#CBD9E8"/>
<path d="M408.333 729.166C420.833 729.166 426.354 723.449 433.333 716.666L500 651.841L416.841 601.695" fill="#AFC9DE"/>
<path d="M416.834 601.708L618.334 750.579C641.329 763.267 657.921 756.696 663.65 729.233L745.671 342.721C754.067 309.054 732.838 293.779 710.838 303.767L229.213 489.479C196.338 502.667 196.534 521.008 223.221 529.179L346.817 567.758L632.954 387.238C646.463 379.046 658.863 383.446 648.688 392.479" fill="white"/>
<defs>
<linearGradient id="paint0_linear_9_413" x1="500" y1="0" x2="500" y2="992.583" gradientUnits="userSpaceOnUse">
<stop stop-color="#2AABEE"/>
<stop offset="1" stop-color="#229ED9"/>
</linearGradient>
</defs>
</svg>
